<svg xmlns="http://www.w3.org/2000/svg" display="none" version="1.1">
  <symbol id="javascript" viewBox="0 0 20 20">
    <path d="M0,0 L20,0 L20,20 L0,20 L0,0 L0,0 Z M18.3625,15.23 C18.21625,14.3175 17.62125,13.55125 15.85875,12.83625 C15.24625,12.54875 14.565,12.34875 14.36125,11.88625 C14.28625,11.61125 14.27375,11.46125 14.32375,11.29875 C14.44875,10.76125 15.08625,10.59875 15.58625,10.74875 C15.91125,10.855 16.21125,11.10375 16.39875,11.50125 C17.26125,10.9425 17.26125,10.94625 17.86125,10.56375 C17.63625,10.22 17.52375,10.06375 17.37375,9.91625 C16.8525,9.335 16.14875,9.03625 15.01375,9.05875 L14.42625,9.13375 C13.86375,9.27625 13.32625,9.57375 13.0075,9.97125 C12.06,11.04625 12.3325,12.925 13.4825,13.69875 C14.62,14.54875 16.285,14.7425 16.4975,15.53875 C16.7025,16.51375 15.77875,16.82875 14.86,16.7175 C14.185,16.575 13.81,16.23 13.4,15.605 L11.88375,16.48 C12.065,16.88 12.25875,17.06125 12.56375,17.4075 C14.01375,18.87375 17.63875,18.80125 18.28875,16.57625 C18.31375,16.50125 18.48875,15.99125 18.35125,15.20625 L18.3625,15.23 Z M10.875,9.1925 L9.0025,9.1925 C9.0025,10.8075 8.995,12.4125 8.995,14.03 C8.995,15.0575 9.0475,16 8.88,16.28875 C8.605,16.86375 7.8975,16.78875 7.575,16.68875 C7.245,16.52625 7.0775,16.29875 6.88375,15.97375 C6.83125,15.88125 6.79125,15.80875 6.7775,15.8025 C6.27,16.115 5.765,16.425 5.25625,16.735 C5.51,17.255 5.88125,17.705 6.36,17.9975 C7.0725,18.4225 8.03,18.55625 9.0325,18.32625 C9.685,18.13875 10.2475,17.7425 10.54125,17.14375 C10.96625,16.36 10.87625,15.41 10.8725,14.35625 C10.8825,12.64375 10.8725,10.92875 10.8725,9.20625 L10.875,9.1925 Z" />
  </symbol>
  <symbol id="html" viewBox="0 0 20 20">
    <path d="M1.5 0h21l-1.91 21.563L11.977 24l-8.564-2.438L1.5 0zm7.031 9.75l-.232-2.718 10.059.003.23-2.622L5.412 4.41l.698 8.01h9.126l-.326 3.426-2.91.804-2.955-.81-.188-2.11H6.248l.33 4.171L12 19.351l5.379-1.443.744-8.157H8.531z" />
  </symbol>
  <symbol id="fork" viewBox="0 0 16 16">
    <path d="M8 1c-1.11 0-2 0.89-2 2 0 0.73 0.41 1.38 1 1.72v1.28L5 8 3 6v-1.28c0.59-0.34 1-0.98 1-1.72 0-1.11-0.89-2-2-2S0 1.89 0 3c0 0.73 0.41 1.38 1 1.72v1.78l3 3v1.78c-0.59 0.34-1 0.98-1 1.72 0 1.11 0.89 2 2 2s2-0.89 2-2c0-0.73-0.41-1.38-1-1.72V9.5l3-3V4.72c0.59-0.34 1-0.98 1-1.72 0-1.11-0.89-2-2-2zM2 4.2c-0.66 0-1.2-0.55-1.2-1.2s0.55-1.2 1.2-1.2 1.2 0.55 1.2 1.2-0.55 1.2-1.2 1.2z m3 10c-0.66 0-1.2-0.55-1.2-1.2s0.55-1.2 1.2-1.2 1.2 0.55 1.2 1.2-0.55 1.2-1.2 1.2z m3-10c-0.66 0-1.2-0.55-1.2-1.2s0.55-1.2 1.2-1.2 1.2 0.55 1.2 1.2-0.55 1.2-1.2 1.2z" />
  </symbol>
  <symbol id="star" viewBox="0 0 16 16">
    <path d="M14 6l-4.9-0.64L7 1 4.9 5.36 0 6l3.6 3.26L2.67 14l4.33-2.33 4.33 2.33L10.4 9.26 14 6z" />
  </symbol>
 </svg>
